<svg xmlns="http://www.w3.org/2000/svg" width="60" height="40" viewBox="0 0 60 40"><defs><style>.a{fill:#f5f5f5;}.b{fill:#fff;opacity:0.6;}.c{fill:#00afec;}.d{fill:#152884;}</style></defs><g transform="translate(-40 -538)"><g transform="translate(40 538)"><path class="a" d="M60,35a5.015,5.015,0,0,1-5,5H5a5.015,5.015,0,0,1-5-5V5A5.015,5.015,0,0,1,5,0H55a5.015,5.015,0,0,1,5,5Z"/><path class="b" d="M55,0H5A5.081,5.081,0,0,0,0,5V35a5.015,5.015,0,0,0,5,5H55a5.015,5.015,0,0,0,5-5V5A5.015,5.015,0,0,0,55,0Zm0,1a4.012,4.012,0,0,1,4,4V35a4.012,4.012,0,0,1-4,4H5a4.012,4.012,0,0,1-4-4V5A4.012,4.012,0,0,1,5,1Z"/><path class="c" d="M44,13.3H33.1a2.011,2.011,0,0,0-1.9,2.1v7.3a2.077,2.077,0,0,0,1.9,2.1H44a1.947,1.947,0,0,0,1.9-2.1V15.4A2.077,2.077,0,0,0,44,13.3Zm.9,9.4a.684.684,0,0,1-.7.7H33.1a.751.751,0,0,1-.7-.7V17.5H44.9v5.2Zm0-7.1H32.4v-.3a.684.684,0,0,1,.7-.7H44.2a.751.751,0,0,1,.7.7v.3Z"/><path class="d" d="M33,12.1h6.7l-1.4-3a1.872,1.872,0,0,0-2.5-1h-.1L26,13.2a2.1,2.1,0,0,0-.9,2.7l3.1,6.6a1.9,1.9,0,0,0,2.2,1.1A2.934,2.934,0,0,1,30,22V15.1a3.009,3.009,0,0,1,3-3Zm1.4,10.5a1.236,1.236,0,0,1,1.7-.2c.1,0,.1.1.2.2a1.265,1.265,0,0,0,1.2-1.4A1.216,1.216,0,0,0,36.3,20a1.127,1.127,0,0,1-1.6.2c-.1,0-.1-.1-.2-.2a1.265,1.265,0,0,0-1.2,1.4,1.03,1.03,0,0,0,1.1,1.2ZM8,31.9V28.6c1-.7,2-1.6,3.1-2.4,1-.9,2.1-2,3.3-3.1a15.267,15.267,0,0,0,2.8-3.6,6.546,6.546,0,0,0,1-3.3,2.463,2.463,0,0,0-.9-1.9,4.738,4.738,0,0,0-3-.7,10.039,10.039,0,0,0-3.3.6,7.846,7.846,0,0,0-2.9,1.4v-4a11.963,11.963,0,0,1,6.3-2h0a7.833,7.833,0,0,1,5.8,2,6.258,6.258,0,0,1,1.9,4.7,10.389,10.389,0,0,1-2.2,6.1,26.9,26.9,0,0,1-5.5,5.7h7.9v4H8Zm17.2-2a2.769,2.769,0,0,1,.1-.9,1.612,1.612,0,0,1,.4-.7,1.794,1.794,0,0,1,.7-.5,2.388,2.388,0,0,1,.9-.2,3.6,3.6,0,0,1,1.1.2l-.2.8c-.1,0-.2-.1-.4-.1h-.5a.975.975,0,0,0-.9.4,1.689,1.689,0,0,0-.3,1,1.493,1.493,0,0,0,.3,1,1.333,1.333,0,0,0,1,.4h.5c.2,0,.3-.1.4-.1l.1.8c0-.1-.2,0-.4,0s-.4.1-.7.1a2,2,0,0,1-.9-.2,3.039,3.039,0,0,1-.7-.5,1.612,1.612,0,0,1-.4-.7C25.3,30.5,25.2,30.2,25.2,29.9Zm5.5-2.2a1.949,1.949,0,0,1,.8.1,2.186,2.186,0,0,1,.5.3,2.186,2.186,0,0,1,.3.5,1.483,1.483,0,0,1,.1.7v2.6c-.2,0-.4.1-.7.1s-.6.1-1,.1A1.483,1.483,0,0,1,30,32a.764.764,0,0,1-.5-.2c-.1-.1-.3-.2-.3-.4a.844.844,0,0,1-.2-.7,1.268,1.268,0,0,1,.1-.6.781.781,0,0,1,.4-.4,1.072,1.072,0,0,1,.6-.2c.3,0,.4-.1.7-.1h.3a.756.756,0,0,1,.4.1V29c0-.1-.1-.2-.1-.3s-.2-.1-.3-.2c-.1,0-.2-.1-.4-.1h-.6c-.2,0-.3.1-.5.1l-.1-.8a4.331,4.331,0,0,1,.5-.1C30.2,27.6,30.4,27.7,30.7,27.7Zm.1,3.6h.7V30.2h-.8a.367.367,0,0,0-.3.1c-.1.1-.2.1-.2.2a.367.367,0,0,0-.1.3.764.764,0,0,0,.2.5ZM36,28.7c-.1,0-.2-.1-.3-.1h-.8a.367.367,0,0,0-.3.1V32h-1V28a6.373,6.373,0,0,1,.7-.2,2.769,2.769,0,0,1,.9-.1H36c.1,0,.1,0,.2.1Zm.8-2,1-.2v1.3h1.5v.8H37.8v1.7a1.165,1.165,0,0,0,.2.7.764.764,0,0,0,.5.2.9.9,0,0,0,.5-.1c.1,0,.2-.1.3-.1l.2.8c-.1,0-.3.1-.4.1s-.4.1-.6.1a1.949,1.949,0,0,1-.8-.1,1,1,0,0,1-.5-.4,3.329,3.329,0,0,1-.3-.6c0-.2-.1-.5-.1-.7V26.7Zm7.1,3.2a2.769,2.769,0,0,1-.1.9,1.612,1.612,0,0,1-.4.7,4.234,4.234,0,0,1-.7.5,2.354,2.354,0,0,1-.8.2,1.884,1.884,0,0,1-.8-.2,1.47,1.47,0,0,1-.6-.5,1.612,1.612,0,0,1-.4-.7,4.1,4.1,0,0,1,0-1.8,1.612,1.612,0,0,1,.4-.7,2.092,2.092,0,0,1,.6-.4,1.7,1.7,0,0,1,1.6,0,1.538,1.538,0,0,1,.6.4,1.612,1.612,0,0,1,.4.7C43.9,29.2,43.9,29.5,43.9,29.9Zm-.7-3.4c-.1.1-.1.2-.2.3s-.2.1-.3.2h-.6c-.1,0-.2-.1-.3-.1a.349.349,0,0,1-.2-.1h-.2a.367.367,0,0,0-.3.1.349.349,0,0,0-.1.2l-.5-.3a.349.349,0,0,1,.1-.2c.1-.1.1-.2.2-.3s.2-.1.3-.2a.367.367,0,0,1,.3-.1h.3c.1,0,.2.1.3.1a.349.349,0,0,1,.2.1h.2a.367.367,0,0,0,.3-.1c.1-.1.1-.2.2-.2l.5.3C43.3,26.3,43.3,26.4,43.2,26.5Zm-.3,3.4a1.493,1.493,0,0,0-.3-1,1.039,1.039,0,0,0-.8-.4.909.909,0,0,0-.8.4,1.817,1.817,0,0,0,0,2,1.039,1.039,0,0,0,.8.4.909.909,0,0,0,.8-.4A1.689,1.689,0,0,0,42.9,29.9Zm1.8,0a2.958,2.958,0,0,1,.2-1,4.348,4.348,0,0,1,.4-.7,2.092,2.092,0,0,1,.6-.4,1.7,1.7,0,0,1,.7-.1,2.168,2.168,0,0,1,1.4.5,1.94,1.94,0,0,1,.5,1.6v.4H45.7a.909.909,0,0,0,.4.8,1.222,1.222,0,0,0,.9.3,1.7,1.7,0,0,0,.7-.1,4.331,4.331,0,0,0,.5-.1l.1.8c-.1,0-.1.1-.2.1h-.4a.6.6,0,0,0-.4.1h-.4a2.958,2.958,0,0,1-1-.2,1.794,1.794,0,0,1-.7-.5,1.612,1.612,0,0,1-.4-.7C44.8,30.5,44.7,30.2,44.7,29.9Zm2.9-.4a.6.6,0,0,0-.1-.4c0-.1-.1-.2-.2-.3s-.2-.2-.3-.2c-.1-.1-.2-.1-.4-.1s-.3,0-.4.1-.2.1-.3.2-.1.2-.2.3c0,.1-.1.2-.1.4Zm3,1.8a1.083,1.083,0,0,0,.6-.1c.1-.1.2-.2.2-.3s-.1-.3-.2-.3-.3-.2-.6-.3c-.2-.1-.3-.1-.5-.2-.1-.1-.3-.2-.4-.3a1.38,1.38,0,0,1-.3-.4.749.749,0,0,1-.1-.5.975.975,0,0,1,.4-.9,2.133,2.133,0,0,1,1.2-.3,1.7,1.7,0,0,1,.7.1,1.087,1.087,0,0,0,.5.1l-.1.8c-.1,0-.2-.1-.4-.1s-.4-.1-.6-.1a.749.749,0,0,0-.5.1c-.1.1-.2.2-.2.3v.2a.1.1,0,0,0,.1.1.349.349,0,0,0,.2.1c.1,0,.2.1.4.1l.6.3a1.381,1.381,0,0,1,.4.3.52.52,0,0,1,.2.4,4.331,4.331,0,0,1,.1.5.975.975,0,0,1-.4.9,2.269,2.269,0,0,1-1.3.3,2.22,2.22,0,0,1-.9-.1c-.2-.1-.4-.1-.5-.2l.2-.8c.1.1.3.1.5.2A1.7,1.7,0,0,0,50.6,31.3Z"/></g></g></svg>