<svg xmlns="http://www.w3.org/2000/svg" width="60" height="40" viewBox="0 0 60 40"><defs><style>.a{fill:#f5f5f5;}.b{fill:#fff;opacity:0.6;}</style></defs><path class="a" d="M60,35a5.015,5.015,0,0,1-5,5H5a5.015,5.015,0,0,1-5-5V5A5.015,5.015,0,0,1,5,0H55a5.015,5.015,0,0,1,5,5Z"/><path class="b" d="M55,0H5A5.015,5.015,0,0,0,0,5V35a5.015,5.015,0,0,0,5,5H55a5.015,5.015,0,0,0,5-5V5A5.015,5.015,0,0,0,55,0Zm0,1a4,4,0,0,1,4,4V35a4,4,0,0,1-4,4H5a4,4,0,0,1-4-4V5A4,4,0,0,1,5,1Z"/><rect width="1.976" height="20.109" transform="translate(13.835 9.945)"/><rect width="1.976" height="20.109" transform="translate(25.991 9.945)"/><rect width="1.976" height="20.109" transform="translate(36.1 9.945)"/><rect width="1.976" height="20.109" transform="translate(40.121 9.945)"/><rect width="1.976" height="20.109" transform="translate(44.189 9.945)"/><rect width="4.019" height="20.109" transform="translate(30.012 9.945)"/><rect width="6.041" height="20.109" transform="translate(17.879 9.945)"/></svg>