<svg xmlns="http://www.w3.org/2000/svg" width="60" height="40" viewBox="0 0 60 40"><defs><style>.a{fill:#f5f5f5;}.b{fill:#fff;opacity:0.6;}.c{fill:#074c95;}</style></defs><path class="a" d="M60,35a5.015,5.015,0,0,1-5,5H5a5.015,5.015,0,0,1-5-5V5A5.015,5.015,0,0,1,5,0H55a5.015,5.015,0,0,1,5,5Z"/><path class="b" d="M55,0H5A5.015,5.015,0,0,0,0,5V35a5.015,5.015,0,0,0,5,5H55a5.015,5.015,0,0,0,5-5V5A5.015,5.015,0,0,0,55,0Zm0,1a4,4,0,0,1,4,4V35a4,4,0,0,1-4,4H5a4,4,0,0,1-4-4V5A4,4,0,0,1,5,1Z"/><path class="c" d="M36.11,19.99a8.4,8.4,0,1,0-8.484,8.4A8.384,8.384,0,0,0,36.11,19.99Zm-8.183,9.166c-.068-.015-.842-.04-.911-.044a8.439,8.439,0,0,1-2.107-.393,9.123,9.123,0,0,1-4.259-2.813,8.791,8.791,0,0,1-2.115-4.8c-.024-.2-.054-.406-.081-.609v-.884a1.743,1.743,0,0,0,.043-.187c.05-.4.077-.807.149-1.2a8.671,8.671,0,0,1,2.32-4.572,8.98,8.98,0,0,1,5.646-2.723c.2-.022,1.147-.053,1.349-.079,1.756,0,4.659.038,4.727.045.269.029.54.04.806.083a9.579,9.579,0,0,1,5.029,2.343,8.785,8.785,0,0,1,3,7.41,7.36,7.36,0,0,1-.79,2.925,9.674,9.674,0,0,1-7.679,5.424C32.867,29.1,29.683,29.156,27.927,29.156Z"/><path class="c" d="M29.645,24.88V15.095a5.243,5.243,0,0,1,0,9.785Z"/><path class="c" d="M25.78,24.883a5.249,5.249,0,0,1,0-9.793Z"/></svg>