<svg xmlns="http://www.w3.org/2000/svg" width="60" height="40" viewBox="0 0 60 40"><defs><style>.a{fill:#f5f5f5;}.b{fill:#fff;opacity:0.25;}.c{fill:#ed412f;}.d{fill:#1aa5df;}.e{fill:#ffca32;}</style></defs><path class="a" d="M60,35a5.015,5.015,0,0,1-5,5H5a5.015,5.015,0,0,1-5-5V5A5.015,5.015,0,0,1,5,0H55a5.015,5.015,0,0,1,5,5Z"/><path class="b" d="M55,0H5A5.015,5.015,0,0,0,0,5V35a5.015,5.015,0,0,0,5,5H55a5.015,5.015,0,0,0,5-5V5A5.015,5.015,0,0,0,55,0Zm0,1a4,4,0,0,1,4,4V35a4,4,0,0,1-4,4H5a4,4,0,0,1-4-4V5A4,4,0,0,1,5,1Z"/><path d="M49.31,21.627a2.793,2.793,0,0,1-3.621,2.087l-.62,1.852a4.75,4.75,0,0,0,6.155-3.548Zm-5.878,2.994,1.293-1.463a2.791,2.791,0,0,1,0-4.18l-1.294-1.463a4.744,4.744,0,0,0,0,7.106Zm2.258-6.2a2.794,2.794,0,0,1,3.62,2.091l1.914-.39a4.749,4.749,0,0,0-6.152-3.553S45.69,18.42,45.69,18.42Zm-5.729-4.232v9.158l1.589.659L40.8,25.811l-1.572-.653a1.786,1.786,0,0,1-.774-.65,2.051,2.051,0,0,1-.3-1.136V14.189Zm-7.24,2.138a4.744,4.744,0,0,0-4.046,7.331l8.59-3.672A4.742,4.742,0,0,0,32.721,16.326Zm-2.846,5.036a2.488,2.488,0,0,1-.017-.336,2.792,2.792,0,0,1,4.924-1.759Zm4.726,1.7a2.774,2.774,0,0,1-3.437.366l-1.038,1.654a4.735,4.735,0,0,0,5.837-.621Z"/><path class="c" d="M21.028,20.918a4.577,4.577,0,0,1-5.931,3.42l-1.016,3.035a7.779,7.779,0,0,0,10.082-5.812Z"/><path class="d" d="M11.4,25.821l2.12-2.4a4.571,4.571,0,0,1,0-6.848L11.4,14.18a7.774,7.774,0,0,0,0,11.641"/><path class="e" d="M15.1,15.662a4.577,4.577,0,0,1,5.932,3.424l3.135-.639a7.78,7.78,0,0,0-10.081-5.82Z"/></svg>