<svg xmlns="http://www.w3.org/2000/svg" width="60" height="40" viewBox="0 0 60 40"><defs><style>.a{fill:#be232c;}.b,.c{fill:#fff;}.b{opacity:0.25;}</style></defs><path class="a" d="M60,35a5.015,5.015,0,0,1-5,5H5a5.015,5.015,0,0,1-5-5V5A5.015,5.015,0,0,1,5,0H55a5.015,5.015,0,0,1,5,5Z"/><path class="b" d="M55,0H5A5.015,5.015,0,0,0,0,5V35a5.015,5.015,0,0,0,5,5H55a5.015,5.015,0,0,0,5-5V5A5.015,5.015,0,0,0,55,0Zm0,1a4,4,0,0,1,4,4V35a4,4,0,0,1-4,4H5a4,4,0,0,1-4-4V5A4,4,0,0,1,5,1Z"/><path class="c" d="M16.215,16.95h.174l.138-.047.138-.047.122-.124.122-.124.064-.165.064-.165,0-.243,0-.243-.057-.1-.057-.1-.1-.062-.1-.062H16.3l-.147.066L16,15.611l-.085.091-.085.091-.067.157-.067.157-.013.245-.013.245.062.122.062.122.12.055.12.054h.178Zm27.7,6.986h.625v-.382l.072-.474c.04-.261.1-.674.145-.918s.09-.553.112-.687.077-.424.124-.644.106-.459.131-.53a.979.979,0,0,0,.046-.165,1.971,1.971,0,0,1,.118-.286l.118-.249.156-.207.156-.207.17-.128a2.529,2.529,0,0,1,.335-.208l.164-.08.358,0,.358,0,.141.045.141.045.024-.015.024-.015v-.091a3.757,3.757,0,0,1,.068-.415l.067-.324-.075-.029c-.041-.016-.14-.05-.218-.075l-.143-.045h-.516l-.21.074-.21.074-.158.095-.158.095-.205.215-.205.215-.11.167a.764.764,0,0,1-.119.157c-.005,0,.028-.2.073-.424s.082-.444.083-.48v-.064h-1.06V18c0,.01-.026.194-.059.408s-.1.628-.144.919-.124.762-.171,1.045-.118.689-.158.9-.11.586-.157.83-.123.637-.17.873l-.138.694-.053.265Zm-14.511,0h.611l.018-.259c.01-.142.045-.429.077-.637s.1-.623.146-.922.138-.8.2-1.107.131-.617.154-.684a.827.827,0,0,0,.043-.16,1.544,1.544,0,0,1,.1-.261,3.47,3.47,0,0,1,.233-.415l.13-.194.175-.162.175-.162.215-.1.215-.1.329,0,.329,0,.162.048c.089.027.17.048.179.048s.017-.03.017-.068a4.215,4.215,0,0,1,.072-.419c.04-.193.072-.36.072-.37a.732.732,0,0,0-.208-.081,2.608,2.608,0,0,0-.351-.081l-.143-.018-.186.033a2.34,2.34,0,0,0-.338.089,1.882,1.882,0,0,0-.307.155,2.235,2.235,0,0,0-.294.236,3.32,3.32,0,0,0-.287.337c-.081.11-.166.226-.188.258L30.719,19l.025-.115c.014-.063.052-.269.085-.458s.067-.366.075-.394l.015-.05H29.827v.069c0,.038-.032.267-.072.508s-.1.645-.144.9-.111.69-.158.973-.118.689-.158.9-.111.586-.158.83-.125.643-.173.888-.106.532-.128.641-.041.208-.041.222v.025Zm-14.4,0h.616l.017-.045a.52.52,0,0,0,.017-.145c0-.055.039-.341.086-.635s.126-.773.174-1.064.12-.716.158-.945.108-.608.154-.845.116-.6.156-.816.118-.617.175-.9.109-.524.117-.537l.016-.025-.623.008L15.444,18l-.052.372c-.029.2-.091.611-.139.9s-.12.736-.16.988-.111.658-.157.9l-.156.83c-.04.213-.112.586-.159.83s-.112.566-.142.716-.063.3-.073.336l-.017.064Zm-7.7,0H8l.05-.308c.027-.169.081-.5.119-.723s.109-.654.157-.945.121-.723.162-.959.1-.6.143-.814a3.512,3.512,0,0,1,.085-.4l.016-.016h3.742l.021.021.021.021-.032.165c-.018.091-.071.371-.117.623s-.125.677-.174.945-.12.648-.158.845-.114.609-.17.916-.1.574-.1.594v.036h1.4l.031-.179c.017-.1.044-.276.061-.394s.056-.369.088-.558.1-.563.142-.83.123-.725.172-1.016.12-.716.159-.945.109-.615.155-.859.123-.656.171-.916.12-.653.159-.873.112-.62.161-.888.111-.58.137-.694l.048-.208H13.23l-.019.136c-.011.075-.045.284-.076.465s-.088.5-.126.716-.108.618-.155.9-.107.659-.133.834l-.048.318-1.038.021-1.038.021-.87-.021c-.478-.011-.872-.023-.876-.026s.013-.114.036-.247.067-.365.1-.514.088-.446.128-.659.085-.477.1-.587.048-.294.072-.408.07-.355.1-.534.065-.347.075-.372l.017-.045h-1.4l-.045.251c-.025.138-.058.334-.073.437s-.068.431-.116.73-.12.744-.158.988-.11.689-.157.988S7.4,19.733,7.351,20s-.119.648-.156.845-.108.57-.158.83-.122.627-.161.816-.082.408-.095.487-.058.306-.1.5-.074.382-.074.408v.047H7.3v0Zm42.138-.673-.216.011-.146-.026a1.53,1.53,0,0,1-.285-.086l-.139-.06-.117-.1-.117-.1-.087-.167-.087-.167-.04-.186-.04-.186,0-.372,0-.372.046-.329.046-.329.072-.229a2.382,2.382,0,0,0,.072-.264,1.336,1.336,0,0,1,.087-.229c.047-.107.127-.271.176-.366a2.986,2.986,0,0,1,.205-.327,2.647,2.647,0,0,1,.251-.286,1.952,1.952,0,0,1,.264-.21l.128-.079.225-.078.225-.078h.944l.272.075c.15.042.308.09.353.107l.081.031-.016.079c-.009.043-.043.233-.076.422s-.1.55-.144.8-.117.632-.158.845-.1.483-.131.6-.076.282-.1.363a2.446,2.446,0,0,1-.12.315,2.406,2.406,0,0,1-.169.3,1.653,1.653,0,0,1-.186.218,2.607,2.607,0,0,1-.253.194l-.157.1-.228.072-.228.072Zm-.487.813.272,0,.258-.042c.142-.023.322-.06.4-.082a2.038,2.038,0,0,0,.315-.129l.172-.088.148-.13.148-.13.156-.208a2.239,2.239,0,0,0,.172-.251l.017-.043L51,23.119c-.008.079-.026.208-.04.286s-.034.23-.044.336l-.019.193h1.124v-.386l.086-.73c.047-.4.117-.936.155-1.188s.1-.613.13-.8.093-.53.133-.759.11-.628.157-.888.123-.672.168-.916.116-.624.156-.845.114-.607.162-.859.119-.606.157-.787.069-.339.069-.351V15.4H52.166l-.018.179c-.01.1-.057.424-.1.723s-.125.776-.172,1.059-.092.558-.1.611l-.015.095-.048-.021c-.027-.011-.171-.051-.32-.089l-.272-.068-.372-.029-.372-.029-.315.029-.315.029-.286.072-.286.072-.272.133-.272.133-.2.148-.2.148-.173.186a4.266,4.266,0,0,0-.306.375l-.133.19-.156.324c-.086.178-.19.414-.231.524s-.115.355-.163.543l-.088.343-.043.445-.043.445.032.358.032.358.038.129c.021.071.066.2.1.281l.06.152.11.149.11.149.126.1.126.1.172.085a2.319,2.319,0,0,0,.352.135,3.294,3.294,0,0,0,.358.073A4.036,4.036,0,0,0,48.953,24.076Zm-9.32-.811-.229.012-.152-.039a1.647,1.647,0,0,1-.281-.1l-.13-.067-.071-.084a1.332,1.332,0,0,1-.132-.2l-.061-.118-.012-.275-.012-.275.049-.167a2.772,2.772,0,0,1,.139-.354l.091-.187.174-.172.174-.172.184-.089.184-.089.229-.054.229-.054h1.432l.045.019.045.019-.038.225c-.021.124-.071.347-.111.5s-.111.37-.157.489-.085.225-.085.234a1.5,1.5,0,0,1-.1.193l-.1.176-.172.17a1.109,1.109,0,0,1-.195.17.513.513,0,0,0-.129.072l-.106.072-.232.073-.232.073Zm-.357.8.387-.011.243-.062.243-.062.157-.074a2.974,2.974,0,0,0,.315-.18,2.444,2.444,0,0,0,.3-.244,3.287,3.287,0,0,0,.255-.29A.843.843,0,0,1,41.3,23a2.379,2.379,0,0,1-.032.294,4.282,4.282,0,0,0-.041.465v.179h1.05l.016-.408.016-.408.075-.53c.041-.291.108-.723.148-.959s.11-.636.155-.888.117-.645.159-.873l.077-.415,0-.359,0-.359-.081-.166-.081-.166-.11-.106-.11-.106-.181-.091-.181-.091-.269-.06-.269-.06-.37-.028-.37-.028-.477.03c-.262.016-.632.048-.821.071l-.344.042h-.468l-.034.165c-.019.091-.071.306-.116.478a2.476,2.476,0,0,0-.072.323,1.868,1.868,0,0,0,.278-.063c.148-.04.462-.1.7-.146l.429-.073.387-.016.387-.016.249.044.249.044.166.082.166.082.093.139.093.139V19.6l-.049.24-.049.24-1.03,0-1.03,0-.337.092a3.815,3.815,0,0,0-.456.15.7.7,0,0,1-.146.058,1.584,1.584,0,0,0-.245.136l-.219.136-.172.172a1.854,1.854,0,0,0-.461.681l-.1.222-.044.25-.044.25v.524l.042.218.042.218.078.142a1.841,1.841,0,0,0,.174.255l.1.113.171.1.171.1.2.055c.108.031.272.067.365.082l.169.027Zm-4.711.01.315,0,.358-.042c.2-.023.459-.062.582-.086s.323-.071.444-.1a1.547,1.547,0,0,0,.243-.082,1.361,1.361,0,0,0,.076-.289c.029-.148.065-.346.081-.441a.739.739,0,0,0,.018-.183c-.006-.006-.027,0-.047.018a2.51,2.51,0,0,1-.312.131l-.276.1-.393.076-.393.076-.334-.011-.334-.011-.19-.066-.19-.066-.147-.128-.146-.128-.1-.177-.1-.177-.046-.237-.046-.237V21.4l.056-.372.056-.372.06-.2c.033-.11.07-.239.082-.286a3.159,3.159,0,0,1,.117-.3c.052-.118.144-.3.205-.406l.111-.191.136-.141.136-.141.144-.089.144-.089.185-.057a3.461,3.461,0,0,1,.4-.09l.215-.033.315.016.315.016.372.074.372.075.151.056c.083.031.155.056.159.056a1.979,1.979,0,0,0,.044-.236c.02-.13.055-.344.079-.475a1.217,1.217,0,0,0,.03-.251,1.518,1.518,0,0,0-.249-.039c-.13-.014-.483-.041-.784-.058l-.548-.031-.387.03-.387.03-.286.06-.286.06-.184.074a2.742,2.742,0,0,0-.33.163c-.08.049-.182.115-.227.146a3.589,3.589,0,0,0-.3.273l-.219.216-.122.179a4.656,4.656,0,0,0-.259.457l-.136.278-.1.3c-.058.165-.138.436-.178.6l-.074.3-.027.272-.027.272v.716l.027.208.027.208.086.214.086.214.1.155.1.155.158.155.158.155.167.088.167.088.219.061a3.8,3.8,0,0,0,.387.085C34.176,24.062,34.393,24.074,34.565,24.076ZM26,20.043c-.793,0-1.441-.006-1.441-.013s.034-.107.075-.222.114-.286.161-.381l.086-.171.189-.188.189-.188.186-.089a2.09,2.09,0,0,1,.3-.118,3.06,3.06,0,0,1,.4-.048l.286-.018.22.028.22.028.16.073.16.073.088.095a1.061,1.061,0,0,1,.128.17l.04.076.026.168.026.168-.03.279-.03.279H26Zm-.539,4.033.315,0,.315-.029c.173-.016.457-.049.63-.073s.472-.079.665-.121l.35-.077.017-.129c.01-.071.049-.282.087-.469l.07-.34-.015-.015-.015-.015-.107.052c-.059.028-.242.1-.407.151l-.3.1-.315.061-.315.061h-1l-.172-.055a2.617,2.617,0,0,1-.309-.123l-.137-.068-.113-.1-.113-.1-.088-.154-.088-.154-.055-.193-.055-.193v-.716l.049-.319.049-.319.431-.02.431-.02,1.593.01,1.593.01.048-.2c.026-.112.067-.344.09-.515l.042-.311v-.524l-.045-.2-.045-.2-.075-.129a1.853,1.853,0,0,0-.161-.229,1.324,1.324,0,0,0-.189-.172,2.82,2.82,0,0,0-.245-.148l-.143-.076-.25-.06-.25-.06-.308-.029-.308-.029-.286.019-.286.019-.344.066-.344.066-.215.086a4.016,4.016,0,0,0-.4.191,2.775,2.775,0,0,0-.315.21c-.071.057-.194.169-.273.248a2.637,2.637,0,0,0-.26.315,4.135,4.135,0,0,0-.218.372c-.056.11-.129.265-.162.344s-.093.24-.134.358-.1.344-.141.5-.088.417-.113.576l-.046.29v.852l.044.186c.024.1.07.257.1.344a2.368,2.368,0,0,0,.131.286,1.592,1.592,0,0,0,.191.254,2.315,2.315,0,0,0,.261.231,2.047,2.047,0,0,0,.311.183l.168.077.235.057c.129.031.324.068.433.082S25.288,24.074,25.461,24.076Zm-5.945-.787-.239.014-.156-.028-.156-.028-.159-.072-.159-.072L18.536,23l-.111-.106-.064-.143a2.033,2.033,0,0,1-.1-.3l-.036-.154.015-.247.015-.247.074-.387c.041-.213.113-.612.162-.888s.122-.679.163-.9l.075-.4.164-.137a2.627,2.627,0,0,1,.318-.224l.154-.087.2-.062.2-.062.258-.015.258-.015.21.045.21.045.148.068.148.068.124.125.124.125.067.132a1.892,1.892,0,0,1,.115.316l.048.184-.015.544-.015.544-.074.322c-.04.177-.117.447-.171.6l-.1.28-.119.226a3.994,3.994,0,0,1-.225.374,1.654,1.654,0,0,1-.206.234c-.055.048-.147.121-.2.164l-.1.078L20,23.191l-.243.083ZM16.865,26.6h.616l.017-.045a.445.445,0,0,0,.017-.13c0-.047.02-.216.045-.377s.083-.531.129-.822.116-.729.154-.973.085-.557.1-.694A1.042,1.042,0,0,1,18,23.307a.5.5,0,0,1,.088.135l.072.135.159.16.159.16.195.078.195.078.233.03.233.03.3-.018.3-.018.32-.083.32-.083.172-.078a3.473,3.473,0,0,0,.372-.209l.2-.131.187-.187a4.14,4.14,0,0,0,.322-.366,1.69,1.69,0,0,0,.135-.195.858.858,0,0,1,.081-.136,3.338,3.338,0,0,0,.2-.406c.067-.157.172-.441.233-.63l.111-.344.057-.3c.032-.164.072-.434.09-.6l.033-.3-.019-.258-.019-.258-.06-.258-.06-.258-.1-.193-.1-.193-.188-.2-.187-.2-.221-.114-.221-.114-.243-.058-.243-.058-.243-.018-.243-.018-.271.031-.271.031-.221.056-.221.057-.192.089a3.372,3.372,0,0,0-.342.185,1.779,1.779,0,0,0-.189.135.917.917,0,0,1-.114.088l-.075.049.053-.251c.029-.138.053-.268.054-.287v-.036h-1.05l-.092.58c-.051.319-.131.812-.178,1.095s-.118.709-.158.945-.11.655-.157.931-.124.714-.172.973l-.156.845c-.038.2-.109.591-.158.859s-.128.693-.175.945-.124.651-.171.888-.092.458-.1.494l-.016.064Z"/></svg>