<svg xmlns="http://www.w3.org/2000/svg" width="60" height="40" viewBox="0 0 60 40"><defs><style>.a{fill:#f5f5f5;}.b{fill:#fff;opacity:0.6;}.c{fill:#f79e1b;}.d{fill:#eb001b;}.e{fill:#ff5f00;}</style></defs><path class="a" d="M60,35a5.015,5.015,0,0,1-5,5H5a5.015,5.015,0,0,1-5-5V5A5.015,5.015,0,0,1,5,0H55a5.015,5.015,0,0,1,5,5Z"/><path class="b" d="M55,0H5A5.015,5.015,0,0,0,0,5V35a5.015,5.015,0,0,0,5,5H55a5.015,5.015,0,0,0,5-5V5a5.015,5.015,0,0,0-5-5Zm0,1a4,4,0,0,1,4,4V35a4,4,0,0,1-4,4H5a4,4,0,0,1-4-4V5A4,4,0,0,1,5,1Z"/><circle class="c" cx="8.599" cy="8.599" r="8.599" transform="translate(26.671 11.413)"/><circle class="d" cx="8.599" cy="8.599" r="8.599" transform="translate(16.131 11.389)"/><path class="e" d="M26.671,19.993a8.586,8.586,0,0,0,3.313,6.8A8.6,8.6,0,0,0,30.017,13.2a8.575,8.575,0,0,0-3.346,6.791Z"/></svg>